Coordinates
version=1
nRows=14
nColumns=40
inDegrees=yes

Units are S.I. units (second, meters, Newtons, ...)
Angles are in degrees.

endheader
time	pelvis_tilt	pelvis_list	pelvis_rotation	pelvis_tx	pelvis_ty	pelvis_tz	hip_flexion_r	hip_adduction_r	hip_rotation_r	knee_angle_r	knee_angle_r_beta	ankle_angle_r	subtalar_angle_r	mtp_angle_r	hip_flexion_l	hip_adduction_l	hip_rotation_l	knee_angle_l	knee_angle_l_beta	ankle_angle_l	subtalar_angle_l	mtp_angle_l	lumbar_extension	lumbar_bending	lumbar_rotation	arm_flex_r	arm_add_r	arm_rot_r	elbow_flex_r	pro_sup_r	wrist_flex_r	wrist_dev_r	arm_flex_l	arm_add_l	arm_rot_l	elbow_flex_l	pro_sup_l	wrist_flex_l	wrist_dev_l
      5.24000000	     -5.80558854	     -3.58464106	     -2.39685863	      0.91087253	      0.93066051	      0.47462236	     31.20492127	     -7.08754114	     -5.33993402	     68.75736946	     68.75736946	     -3.24099130	    -12.10187060	     -0.81920590	     14.61027907	     -3.36288629	     -6.29614175	     20.67745839	     20.67745839	     14.13798951	     -9.63602475	      1.61834274	    -11.39098826	      6.24860196	      3.56043129	      0.40935823	    -14.48066785	     -9.53071502	     46.64003139	     45.32585461	      0.00000000	      0.00000000	      6.65392489	    -16.04440592	     -5.54332343	     75.96460504	     46.66277921	      0.00000000	      0.00000000
      5.25121429	     -5.75012847	     -3.65040925	     -2.40687567	      0.91027510	      0.93125483	      0.47406334	     32.56264572	     -6.95453285	     -5.81295851	     67.29344408	     67.29344408	     -2.88497680	    -12.79591743	     -0.86672438	     13.62248805	     -3.33135174	     -6.34757037	     19.96074805	     19.96074805	     14.38328311	     -9.35080412	      1.62431189	    -11.57382247	      6.35291777	      3.85978643	     -1.50654122	    -14.34692785	     -9.27208799	     44.84602468	     45.37418075	      0.00000000	      0.00000000	      8.26628949	    -15.97908769	     -5.75960957	     77.90265973	     46.73488273	      0.00000000	      0.00000000
      5.26242857	     -5.66126008	     -3.71357063	     -2.41011203	      0.90973503	      0.93170449	      0.47359336	     33.68593168	     -6.79894055	     -6.29531250	     65.52051817	     65.52051817	     -2.79197228	    -13.54234287	     -1.61276364	     12.66747275	     -3.33797739	     -6.52048998	     19.36826886	     19.36826886	     14.54525159	     -8.94015671	      1.10045332	    -11.73940281	      6.36766302	      3.35225643	     -1.65459961	    -13.89391930	     -8.70073659	     39.76917975	     45.56247698	      0.00000000	      0.00000000	      9.02493573	    -16.66775152	     -5.77239720	     81.02385751	     46.89991991	      0.00000000	      0.00000000
      5.27364286	     -5.56721721	     -3.77965709	     -2.37886488	      0.90923505	      0.93216128	      0.47311602	     34.61412926	     -6.64993730	     -6.82742512	     63.43819439	     63.43819439	     -2.45007426	    -14.04367761	     -1.23580489	     11.71541792	     -3.34466122	     -6.68299703	     18.76258945	     18.76258945	     14.69889378	     -8.52376439	      0.76954101	    -11.92657107	      6.42937157	      3.09873626	     -2.48385049	    -13.60193673	     -8.07229107	     36.46368059	     45.67145480	      0.00000000	      0.00000000	     10.12186788	    -16.86005997	     -6.38156084	     83.40279158	     47.08497460	      0.00000000	      0.00000000
      5.28485714	     -5.47294694	     -3.81652344	     -2.33703354	      0.90879491	      0.93250117	      0.47266305	     35.37555050	     -6.49754118	     -7.30737028	     61.05647521	     61.05647521	     -2.07929035	    -14.42438278	     -0.77219894	     10.75711590	     -3.30125995	     -6.76992778	     18.14233607	     18.14233607	     14.93713653	     -8.15982733	      0.68536759	    -12.12373552	      6.50298286	      3.20806139	     -4.08727575	    -13.36912109	     -7.77644334	     34.91583242	     45.70939875	      0.00000000	      0.00000000	     11.63864998	    -16.81888345	     -6.70211225	     85.22849421	     47.16748571	      0.00000000	      0.00000000
      5.29607143	     -5.39262536	     -3.82261979	     -2.26971961	      0.90846718	      0.93266583	      0.47228671	     35.97014479	     -6.36658701	     -7.77966918	     58.34779449	     58.34779449	     -1.66443450	    -14.61713744	     -0.19131080	      9.84328406	     -3.25294787	     -6.94120224	     17.57474644	     17.57474644	     15.14855186	     -7.65317560	      0.40526025	    -12.27660673	      6.52575322	      3.11296995	     -5.25129321	    -13.05828999	     -7.35188034	     32.82020483	     45.76842793	      0.00000000	      0.00000000	     12.89165368	    -17.03441132	     -6.82836670	     87.35828898	     47.25279989	      0.00000000	      0.00000000
      5.30728571	     -5.26634868	     -3.88404675	     -2.17720551	      0.90826757	      0.93282261	      0.47205266	     36.26302331	     -6.12362985	     -8.24170558	     55.21174273	     55.21174273	     -1.14836006	    -14.68867397	      0.27059993	      8.86689560	     -3.26589681	     -7.05693879	     16.99075815	     16.99075815	     15.36670385	     -7.18810304	      0.17581499	    -12.43575055	      6.59536959	      2.95943149	     -6.46988004	    -12.76953704	     -7.00590848	     31.22042451	     45.80971277	      0.00000000	      0.00000000	     14.09997921	    -17.17342147	     -7.03626854	     89.30218206	     47.33031395	      0.00000000	      0.00000000
      5.31850000	     -5.24917542	     -3.86353166	     -2.03401318	      0.90805660	      0.93268274	      0.47176324	     36.50895134	     -6.00276211	     -8.73540980	     51.73680280	     51.73680280	     -0.80956987	    -14.44548656	      0.60961913	      8.06573337	     -3.19942366	     -7.17850402	     16.49224101	     16.49224101	     15.56161084	     -6.62654772	     -0.18760076	    -12.48694704	      6.62534128	      2.59852517	     -7.53247207	    -12.42759521	     -6.60803757	     29.73948039	     45.84599528	      0.00000000	      0.00000000	     15.10291085	    -17.53483523	     -7.25428621	     91.28968157	     47.41413097	      0.00000000	      0.00000000
      5.32971429	     -5.20141826	     -3.92785997	     -1.87631347	      0.90806429	      0.93243498	      0.47159519	     36.44569313	     -5.75619740	     -9.28066553	     47.85082751	     47.85082751	     -0.38140968	    -13.93559694	      0.92441477	      7.24869368	     -3.22628337	     -7.20266825	     16.05701174	     16.05701174	     15.84788972	     -6.25376533	     -0.41344632	    -12.45701155	      6.74107009	      2.23627601	     -8.78288021	    -12.17930978	     -6.40910332	     28.94577694	     45.85954282	      0.00000000	      0.00000000	     16.13206615	    -17.73689322	     -7.44681798	     92.72585766	     47.46936413	      0.00000000	      0.00000000
      5.34092857	     -5.33067416	     -3.90462467	     -1.69736583	      0.90802472	      0.93177658	      0.47161423	     36.40813872	     -5.51929414	     -9.71590074	     43.70279634	     43.70279634	      0.04779272	    -13.15376293	      1.26497694	      6.64503168	     -3.17783294	     -7.19363783	     15.64458201	     15.64458201	     16.09458089	     -5.84195648	     -0.62124651	    -12.27240939	      6.72776399	      1.87302580	    -10.07099827	    -11.79727124	     -6.25888625	     28.37279697	     45.86429205	      0.00000000	      0.00000000	     17.27215787	    -18.13087833	     -7.67500666	     94.01899576	     47.51952829	      0.00000000	      0.00000000
      5.35214286	     -5.11298330	     -3.87165209	     -1.56488066	      0.90854241	      0.93140179	      0.47166842	     35.68215351	     -5.25203672	    -10.19793821	     39.14094613	     39.14094613	      0.04008440	    -12.12113139	      0.29973327	      5.55612970	     -3.17939652	     -7.69997285	     15.12891448	     15.12891448	     16.25324611	     -4.81003898	     -1.56501191	    -12.47744527	      6.67211455	      1.33276041	    -11.11427947	    -11.72224629	     -5.30059102	     27.63408742	     45.84865953	      0.00000000	      0.00000000	     17.53992370	    -18.55864854	     -7.89228931	     97.13673432	     47.67486269	      0.00000000	      0.00000000
      5.36335714	     -5.01388204	     -3.84509415	     -1.39769646	      0.90914037	      0.93074439	      0.47176973	     34.91828612	     -4.94284145	    -10.67028254	     34.49250980	     34.49250980	      0.34845722	    -10.51247067	      0.80377964	      4.62401564	     -3.12434797	     -7.71510874	     14.67518479	     14.67518479	     16.58363153	     -4.35607168	     -1.79632437	    -12.45274717	      6.68461161	      1.17751462	    -12.46445681	    -11.54557685	     -5.11942494	     27.29114758	     45.84380178	      0.00000000	      0.00000000	     18.46807921	    -18.65985622	     -7.94939554	     98.47635051	     47.72202633	      0.00000000	      0.00000000
      5.37457143	     -4.96274494	     -3.78108436	     -1.25056320	      0.90997553	      0.92979211	      0.47208814	     34.08887043	     -4.61146112	    -11.13703244	     29.90623655	     29.90623655	      0.55597133	     -8.72745589	      1.52133121	      3.74612101	     -3.06241705	     -7.83016498	     14.26018995	     14.26018995	     16.91787197	     -3.84680162	     -2.08023777	    -12.33509188	      6.59924840	      0.92825501	    -13.80601451	    -11.38384790	     -5.00804381	     27.07328188	     45.83666996	      0.00000000	      0.00000000	     19.30214936	    -18.88333260	     -7.91374772	     99.81874057	     47.76300715	      0.00000000	      0.00000000
      5.38578571	     -4.77046448	     -3.66663409	     -1.13148420	      0.91123441	      0.92878126	      0.47251259	     33.01680561	     -4.31808518	    -11.65870760	     25.55668109	     25.55668109	      0.83568870	     -6.55811115	      2.53290282	      2.66380999	     -2.96398745	     -8.10094368	     13.82420859	     13.82420859	     17.27526877	     -3.15042797	     -2.47404303	    -12.30576044	      6.44390243	      0.80348119	    -15.16224679	    -11.25416515	     -4.90661539	     27.08337943	     45.82127262	      0.00000000	      0.00000000	     20.02788510	    -19.12850461	     -7.74591289	    101.38277325	     47.80355255	      0.00000000	      0.00000000
